<svg width="64" height="30" viewBox="0 0 64 30" fill="none" xmlns="http://www.w3.org/2000/svg">
<path d="M7.38325 14.315L13.0952 7.6H19.8102L12.3472 15.318L16.5972 22.288H10.1202L7.12825 16.066L6.12525 22.288H0.906245L3.89825 4.863C3.96625 4.50033 4.14758 4.132 4.44225 3.758C4.73691 3.37266 5.12225 3.027 5.59825 2.721C6.08558 2.40366 6.64658 2.14866 7.28125 1.956C7.92725 1.752 8.62425 1.65 9.37225 1.65L7.38325 14.315ZM18.7715 22.271L20.5055 11.578C20.6302 10.9547 20.8569 10.3993 21.1855 9.912C21.5255 9.41333 21.9449 8.994 22.4435 8.654C22.9422 8.314 23.5089 8.05333 24.1435 7.872C24.7895 7.69066 25.4865 7.6 26.2345 7.6L23.9905 22.271H18.7715ZM21.5085 3.129C21.5085 2.755 21.5709 2.42066 21.6955 2.126C21.8202 1.81999 22.0072 1.48566 22.2565 1.123C22.5059 0.862328 22.8062 0.675328 23.1575 0.561995C23.5089 0.437328 23.8715 0.374994 24.2455 0.374994C24.6195 0.374994 24.9822 0.437328 25.3335 0.561995C25.6849 0.675328 25.9852 0.862328 26.2345 1.123C26.4839 1.38366 26.6709 1.68966 26.7955 2.041C26.9202 2.39233 26.9825 2.755 26.9825 3.129C26.9825 3.49166 26.9202 3.84866 26.7955 4.2C26.6709 4.55133 26.4839 4.85166 26.2345 5.101C25.9852 5.35033 25.6849 5.53733 25.3335 5.662C24.9822 5.78666 24.6195 5.849 24.2455 5.849C23.8715 5.849 23.5089 5.78666 23.1575 5.662C22.8062 5.53733 22.5059 5.35033 22.2565 5.101C22.0072 4.85166 21.8202 4.55133 21.6955 4.2C21.5709 3.84866 21.5085 3.49166 21.5085 3.129ZM43.2963 9.3C44.3049 10.5693 44.8093 12.0653 44.8093 13.788C44.8093 15.0573 44.6336 16.185 44.2823 17.171C43.9309 18.157 43.4379 19.024 42.8033 19.772C42.0666 20.6447 41.2619 21.2793 40.3893 21.676C39.5279 22.0727 38.5986 22.271 37.6013 22.271C37.0233 22.271 36.5189 22.2087 36.0883 22.084C35.6576 21.9593 35.2666 21.7837 34.9153 21.557C34.5753 21.3417 34.2466 21.081 33.9293 20.775C33.6233 20.469 33.3003 20.1403 32.9603 19.789C32.9376 19.9137 32.9036 20.1063 32.8583 20.367C32.8243 20.6277 32.7846 20.8827 32.7393 21.132C32.7053 21.3927 32.6713 21.6137 32.6373 21.795C32.6146 21.9763 32.6033 22.0557 32.6033 22.033L31.5153 29.717H26.7893L30.3423 7.566H34.8133L34.5923 9.793C34.8303 9.44166 35.1249 9.13 35.4763 8.858C35.8389 8.57466 36.2299 8.33666 36.6493 8.144C37.0686 7.95133 37.5049 7.80966 37.9583 7.719C38.4229 7.617 38.8763 7.566 39.3183 7.566C40.0663 7.566 40.7916 7.702 41.4943 7.974C42.1969 8.246 42.7976 8.688 43.2963 9.3ZM38.0603 17.766C38.2983 17.528 38.5023 17.1937 38.6723 16.763C38.8536 16.321 38.9783 15.845 39.0463 15.335C39.1256 14.8137 39.1483 14.2867 39.1143 13.754C39.0916 13.2213 38.9896 12.7397 38.8083 12.309C38.6383 11.867 38.3889 11.51 38.0603 11.238C37.7429 10.9547 37.3293 10.813 36.8193 10.813C36.2413 10.813 35.7483 10.949 35.3403 11.221C34.9436 11.493 34.6149 11.8443 34.3543 12.275C34.0936 12.7057 33.8839 13.1873 33.7253 13.72C33.5779 14.2413 33.4533 14.7627 33.3513 15.284C33.3513 15.964 33.4816 16.5873 33.7423 17.154C34.0143 17.7207 34.3713 18.1513 34.8133 18.446C35.2553 18.7407 35.7596 18.8483 36.3263 18.769C36.8929 18.701 37.4709 18.3667 38.0603 17.766ZM48.1767 21.285C47.9274 21.0357 47.7347 20.7807 47.5987 20.52C47.4741 20.2707 47.3777 20.0043 47.3097 19.721C47.2531 19.449 47.2191 19.1543 47.2077 18.837C47.1964 18.5197 47.1907 18.174 47.1907 17.8C47.1907 17.3807 47.2077 16.9557 47.2417 16.525C47.2871 16.0943 47.3494 15.6127 47.4287 15.08L47.9387 11.102C48.1881 10.422 48.4941 9.85533 48.8567 9.402C49.2307 8.94866 49.6671 8.59166 50.1657 8.331C50.6644 8.07033 51.2254 7.889 51.8487 7.787C52.4721 7.67366 53.1577 7.617 53.9057 7.617L52.6477 15.08C52.5797 15.522 52.5514 15.9413 52.5627 16.338C52.5741 16.7233 52.6421 17.0633 52.7667 17.358C52.8914 17.6413 53.0841 17.868 53.3447 18.038C53.6054 18.208 53.9511 18.293 54.3817 18.293C54.6311 18.293 54.8634 18.276 55.0787 18.242C55.3054 18.2193 55.5151 18.1627 55.7077 18.072C55.9004 17.9927 56.0931 17.8737 56.2857 17.715C56.4784 17.545 56.6767 17.324 56.8807 17.052C57.0847 16.7687 57.2264 16.4003 57.3057 15.947C57.3964 15.4823 57.5041 14.944 57.6287 14.332L58.6147 7.617H63.5787L61.7767 22.288H56.5407L56.9997 19.296C56.5917 19.7607 56.2064 20.1743 55.8437 20.537C55.4924 20.8997 55.1241 21.2113 54.7387 21.472C54.3534 21.7327 53.9341 21.931 53.4807 22.067C53.0274 22.203 52.5004 22.271 51.8997 22.271C51.1517 22.271 50.4717 22.1973 49.8597 22.05C49.2477 21.914 48.6867 21.659 48.1767 21.285Z" fill="#3D4A3D"/>
</svg>
